<?xml version="1.0" encoding="UTF-8"?>
<svg id="Capa_1" xmlns="http://www.w3.org/2000/svg" version="1.1" viewBox="0 0 500 500">
  <!-- Generator: Adobe Illustrator 29.4.0, SVG Export Plug-In . SVG Version: 2.1.0 Build 152)  -->
  <defs>
    <style>
      .st0 {
        fill: #1a95ad;
      }

      .st1 {
        fill: #03304e;
      }

      .st2 {
        fill: #fdfefe;
      }
    </style>
  </defs>
  <path class="st1" d="M261,302v62c-1.8-.3-10.6.4-11,0s.2-3.9,0-5c-8,9.1-24.7,7.9-31.4-2.1-14.6-21.6,8.4-51.2,31.4-33.9v-21h11ZM246.7,351.7c11.3-10.9-2.1-30.5-15.6-21.1-14,9.8,1.9,34.5,15.6,21.1Z"/>
  <path class="st1" d="M323.3,331.7c-5.1-5.7-5.2-14.6-1.2-21,7.3-11.6,28.5-10.1,37.8-2-4.3,13.2-5.2,8.2-13.7,5.6-4.9-1.5-15.6-1-15,6.1s28.9,6.1,30.8,22.1c3.2,26.2-29.6,28.7-43.8,14,0-.8,5.5-8.3,6.4-8.4,1.5-.3,19.8,13.1,24.9,1.9s-19.4-10.8-26.1-18.3Z"/>
  <path class="st1" d="M104.4,319.4c-.3.2,0,0-.4.3s-.6.4-.7.6-.1.1-.3.2-.2.2-.4.2-.1,0-.1,0c-8.5-9.9-24.2-8.8-30,3.4s6.4,36.5,24.8,27.8,6.2-4.8,7.1-4.7,6.7,6.2,6.7,7.4c0,2.6-9.4,8.1-12.1,9-21.4,7.3-43.3-7.8-42-30.9s25.6-38.1,46.3-26.4,8.5,7.4,1,13.2Z"/>
  <path class="st1" d="M376.9,319.1l10.1,30.9c2.6.4,1.6-.2,2.1-1.4,1.8-3.9,8.7-28.6,10.1-29.4s11.9-.3,11.8.3c-4.6,11.8-8.6,24-13.3,35.7-5.7,14.3-8,30.5-27.8,26.8.3-1.7-.4-9.6,0-10,.6-.6,12,2.2,11.9-7.5-5.5-15.3-13.3-30-17.9-45.5h12.9Z"/>
  <path class="st1" d="M316,342c0,13.3-10.7,24-24,24s-24-10.7-24-24,10.7-24,24-24,24,10.7,24,24ZM289.8,328.2c-15,2-14,27.8,2.7,26.8s15-29.2-2.7-26.8Z"/>
  <path class="st1" d="M162,342c0,13.3-10.7,24-24,24s-24-10.7-24-24,10.7-24,24-24,24,10.7,24,24ZM146.7,331.3c-12.5-12.2-29.4,9.2-17.2,20.7s29.6-8.6,17.2-20.7Z"/>
  <path class="st1" d="M209,364h-12v-28.5c0-9.3-18-8-18,1v27.5h-12v-44c4.3.9,12.5-2.6,12.5,3,7.9-8.4,24.2-6.3,28,5s1.5,6.2,1.5,6.5v29.5Z"/>
  <path class="st1" d="M442.7,341.3c.9.8,2.9,4.2,3.1,5.4,4,17.7-16.3,21.7-29.2,16.2-1.2-.5-6.3-3.6-6.5-4.5s3.5-7,4.6-7.3c3.2-1,11.6,8,18.3,3.4s-10.5-9.8-13.6-11.3c-9.5-4.4-9.6-16.9-1-22.4,8.1-5.1,18.8-3.1,26.3,2.2.9,1.4-3.6,7.9-4.1,8-1.1.3-9.6-7.2-15.9-2.9-8.8,6.1,14.8,10.1,18.1,13.3Z"/>
  <rect class="st0" x="254" y="130" width="14" height="14"/>
  <g>
    <path class="st1" d="M230,130v33c3.7-1.3,8.4-5.6,12.3-4.9l35.7,21.5v88.9c-.1,1,.8,3.4,1.7,3.4h14.3v10h-164v-10h16.5c.8,0,1.5-.7,1.5-1.5v-139c12.9-9.4,27.1-16.9,40.6-25.3l41.4,23.8ZM189,120v152h12v-95.5c2.8-2.8,16.9-6.4,17.8-9.2-.7-6.3,2.2-27.6-1.6-31.4l-28.3-16ZM174,144c-11.4,1.7-12,5.1-11,16,1.6-.4,10.5-3.7,10.8-4.2,1-1.6-.4-9.3.2-11.8ZM174,171c-1.6.5-10.5,2.7-10.9,3.1-.7.9.3,10.7,0,12.9,1.7-.3,10.6-2.7,10.9-3.1.9-1.5-.4-10.3.1-12.9ZM268,185l-26-14v101h26v-87ZM215,207c9.4-2.2,13.8-3.8,10-14.6-11.4.2-10.7,4.5-10,14.6ZM174,198c-1.7.6-10.6,2.6-10.9,3.1-1,1.5.4,10.3-.1,12.9,11.2-.8,12.1-5.7,11-16ZM225.9,218l-10.9,2v13c11.9-1,11.7-3.8,10.9-15ZM174,226c-12,1-11.8,3.8-11,15,11.6-1.2,12.6-4.1,11-15ZM226,245c-13.2-.8-11.3,4.1-11,15,11-1.5,12-4.1,11-15Z"/>
    <path class="st0" d="M189,120l28.3,16c3.7,3.8.9,25.1,1.6,31.4-1,2.8-15,6.4-17.8,9.2v95.5h-12V120Z"/>
    <polygon class="st0" points="268 185 268 272 242 272 242 171 268 185"/>
    <path class="st2" d="M215,260"/>
  </g>
</svg>